<svg width="161" height="60" viewBox="0 0 161 60" fill="none" xmlns="http://www.w3.org/2000/svg">
<path d="M48 30C48 43.2548 37.2548 54 24 54C10.7452 54 0 43.2548 0 30C0 16.7452 10.7452 6 24 6C37.2548 6 48 16.7452 48 30Z" fill="#474DA4"/>
<path d="M10.2356 32.8199L10.252 32.7518L10.2555 32.6818C10.5062 27.6692 12.1622 23.2136 14.6543 20.0276C17.1458 16.8425 20.4389 14.9603 23.9987 14.9603C27.5586 14.9603 30.8516 16.8425 33.3431 20.0276C35.8353 23.2136 37.4913 27.6692 37.7419 32.6818L37.7454 32.7518L37.7618 32.8199C37.7672 32.8421 37.7716 32.8613 37.775 32.8772V34.0109V36.2837V39.8057V41.8814H10.2224V39.8057V36.2837V34.0109V32.8772C10.2259 32.8613 10.2303 32.8421 10.2356 32.8199Z" stroke="white" stroke-width="1.5"/>
<path d="M67.8 23.5V25.94H63.52V37.5H61.08V25.94H56.8V23.5H67.8ZM69.7977 37.5V23.5H78.5777V25.94H72.2377V28.78H77.2677V31.22H72.2377V35.06H78.5777V37.5H69.7977ZM80.8328 37.5V23.5H86.2028C86.9628 23.5 87.6495 23.69 88.2628 24.07C88.8761 24.45 89.3628 24.96 89.7228 25.6C90.0828 26.2333 90.2628 26.9367 90.2628 27.71C90.2628 28.3433 90.1461 28.9267 89.9128 29.46C89.6861 29.9867 89.3661 30.4433 88.9528 30.83C88.5461 31.2167 88.0761 31.51 87.5428 31.71L90.8928 37.5H88.0828L84.8428 31.93H83.2728V37.5H80.8328ZM83.2728 29.49H85.9228C86.2695 29.49 86.5861 29.4033 86.8728 29.23C87.1595 29.0567 87.3895 28.8233 87.5628 28.53C87.7361 28.2367 87.8228 27.91 87.8228 27.55C87.8228 27.1833 87.7361 26.8533 87.5628 26.56C87.3895 26.2667 87.1595 26.0333 86.8728 25.86C86.5861 25.6867 86.2695 25.6 85.9228 25.6H83.2728V29.49ZM97.0948 23.5H99.9048L104.995 37.5H102.405L101.505 35.02H95.5048L94.6048 37.5H92.0148L97.0948 23.5ZM96.3948 32.58H100.605L98.4948 26.81L96.3948 32.58ZM106.184 37.5L108.904 23.5H110.924L114.334 32.47L117.744 23.5H119.764L122.484 37.5H119.994L118.314 28.84L115.164 37.18H113.494L110.344 28.84L108.674 37.5H106.184ZM124.805 37.5V23.5H127.245V37.5H124.805ZM129.954 37.5V23.5H132.594L138.504 33.09V23.5H140.944V37.5H138.314L132.394 27.91V37.5H129.954ZM148.032 23.5H150.842L155.932 37.5H153.342L152.442 35.02H146.442L145.542 37.5H142.952L148.032 23.5ZM147.332 32.58H151.542L149.432 26.81L147.332 32.58Z" fill="#474DA4"/>
</svg>
