<svg width="161" height="60" viewBox="0 0 161 60" fill="none" xmlns="http://www.w3.org/2000/svg">
<path d="M48 30C48 43.2548 37.2548 54 24 54C10.7452 54 0 43.2548 0 30C0 16.7452 10.7452 6 24 6C37.2548 6 48 16.7452 48 30Z" fill="#474DA4"/>
<path d="M10.6626 29.2233C11.3375 25.6298 12.7524 22.459 14.6543 20.0276C17.1458 16.8425 20.4389 14.9603 23.9987 14.9603C27.5586 14.9603 30.8516 16.8425 33.3431 20.0276C35.245 22.459 36.6599 25.6298 37.3349 29.2233C36.311 28.2657 34.7926 27.507 32.5972 27.507C31.1886 27.507 30.102 27.8195 29.2131 28.311C28.3356 28.7961 27.6891 29.4358 27.1454 30.018C27.0492 30.121 26.9566 30.2212 26.8669 30.3182C25.8965 31.3682 25.2638 32.0528 23.9987 32.0528C22.7336 32.0528 22.1009 31.3682 21.1305 30.3182C21.0408 30.2212 20.9483 30.121 20.8521 30.018C20.3083 29.4358 19.6619 28.7961 18.7843 28.311C17.8955 27.8195 16.8088 27.507 15.4003 27.507C13.2049 27.507 11.6864 28.2657 10.6626 29.2233ZM36.6263 30.6449C37.3463 31.4632 37.6446 32.3672 37.7455 32.7547C37.7516 32.8844 37.7568 33.0144 37.761 33.1449C36.7564 31.9988 35.1326 30.988 32.5972 30.988C31.1886 30.988 30.102 31.3005 29.2131 31.7919C28.3356 32.2771 27.6891 32.9168 27.1454 33.499C27.0492 33.602 26.9566 33.7022 26.8669 33.7992C25.8965 34.8492 25.2638 35.5337 23.9987 35.5337C22.7336 35.5337 22.1009 34.8492 21.1305 33.7992C21.0408 33.7022 20.9483 33.602 20.8521 33.499C20.3083 32.9168 19.6619 32.2771 18.7843 31.7919C17.8955 31.3005 16.8088 30.988 15.4003 30.988C12.8648 30.988 11.2411 31.9988 10.2364 33.1449C10.2407 33.0144 10.2459 32.8844 10.252 32.7547C10.3528 32.3672 10.6512 31.4632 11.3711 30.6449C12.1122 29.8026 13.3355 29.007 15.4003 29.007C16.5713 29.007 17.4058 29.2628 18.0585 29.6237C18.7226 29.9908 19.2382 30.4876 19.7558 31.0418C19.8514 31.1442 19.9481 31.2504 20.0466 31.3587C20.9633 32.3658 22.0437 33.5528 23.9987 33.5528C25.9538 33.5528 27.0342 32.3658 27.9508 31.3587C28.0494 31.2504 28.146 31.1442 28.2417 31.0418C28.7593 30.4876 29.2748 29.9908 29.9389 29.6237C30.5917 29.2628 31.4262 29.007 32.5972 29.007C34.662 29.007 35.8853 29.8026 36.6263 30.6449ZM37.775 36.3581V36.6828C36.7715 35.5302 35.1444 34.5099 32.5972 34.5099C31.1886 34.5099 30.102 34.8224 29.2131 35.3138C28.3356 35.799 27.6891 36.4387 27.1454 37.0209C27.0492 37.1239 26.9566 37.2241 26.8669 37.3211C25.8965 38.3711 25.2638 39.0557 23.9987 39.0557C22.7336 39.0557 22.1009 38.3711 21.1305 37.3211C21.0408 37.2241 20.9483 37.1239 20.8521 37.0209C20.3083 36.4387 19.6619 35.799 18.7843 35.3138C17.8955 34.8224 16.8088 34.5099 15.4003 34.5099C12.853 34.5099 11.226 35.5302 10.2224 36.6828V36.3581C10.2274 36.3355 10.2342 36.306 10.2431 36.2704C10.269 36.1671 10.3122 36.0134 10.3792 35.8264C10.5139 35.4505 10.7404 34.9514 11.1056 34.4557C11.8168 33.4902 13.084 32.488 15.4003 32.488C16.5713 32.488 17.4058 32.7437 18.0585 33.1046C18.7226 33.4718 19.2382 33.9686 19.7558 34.5228C19.8514 34.6252 19.9481 34.7314 20.0466 34.8396C20.9633 35.8467 22.0437 37.0337 23.9987 37.0337C25.9538 37.0337 27.0342 35.8467 27.9508 34.8396C28.0494 34.7314 28.146 34.6252 28.2417 34.5228C28.7593 33.9686 29.2748 33.4718 29.9389 33.1046C30.5917 32.7437 31.4262 32.488 32.5972 32.488C34.9134 32.488 36.1807 33.4902 36.8919 34.4557C37.257 34.9514 37.4836 35.4505 37.6183 35.8264C37.6853 36.0134 37.7285 36.1671 37.7544 36.2704C37.7632 36.306 37.7701 36.3355 37.775 36.3581ZM10.2224 39.8801C10.2274 39.8574 10.2342 39.8279 10.2431 39.7924C10.269 39.689 10.3122 39.5354 10.3792 39.3484C10.5139 38.9724 10.7404 38.4733 11.1056 37.9776C11.8168 37.0121 13.084 36.0099 15.4003 36.0099C16.5713 36.0099 17.4058 36.2657 18.0585 36.6266C18.7226 36.9937 19.2382 37.4905 19.7558 38.0447C19.8514 38.1471 19.9481 38.2533 20.0466 38.3616C20.9633 39.3687 22.0437 40.5557 23.9987 40.5557C25.9538 40.5557 27.0342 39.3687 27.9508 38.3616C28.0494 38.2533 28.146 38.1471 28.2417 38.0447C28.7593 37.4905 29.2748 36.9937 29.9389 36.6266C30.5917 36.2657 31.4262 36.0099 32.5972 36.0099C34.9134 36.0099 36.1807 37.0121 36.8919 37.9776C37.257 38.4733 37.4836 38.9724 37.6183 39.3484C37.6853 39.5354 37.7285 39.689 37.7544 39.7924C37.7632 39.8279 37.7701 39.8574 37.775 39.8801V41.8814H10.2224V39.8801Z" stroke="white" stroke-width="1.5"/>
<path d="M67.8 23.5V25.94H63.52V37.5H61.08V25.94H56.8V23.5H67.8ZM69.7977 37.5V23.5H78.5777V25.94H72.2377V28.78H77.2677V31.22H72.2377V35.06H78.5777V37.5H69.7977ZM80.8328 37.5V23.5H86.2028C86.9628 23.5 87.6495 23.69 88.2628 24.07C88.8761 24.45 89.3628 24.96 89.7228 25.6C90.0828 26.2333 90.2628 26.9367 90.2628 27.71C90.2628 28.3433 90.1461 28.9267 89.9128 29.46C89.6861 29.9867 89.3661 30.4433 88.9528 30.83C88.5461 31.2167 88.0761 31.51 87.5428 31.71L90.8928 37.5H88.0828L84.8428 31.93H83.2728V37.5H80.8328ZM83.2728 29.49H85.9228C86.2695 29.49 86.5861 29.4033 86.8728 29.23C87.1595 29.0567 87.3895 28.8233 87.5628 28.53C87.7361 28.2367 87.8228 27.91 87.8228 27.55C87.8228 27.1833 87.7361 26.8533 87.5628 26.56C87.3895 26.2667 87.1595 26.0333 86.8728 25.86C86.5861 25.6867 86.2695 25.6 85.9228 25.6H83.2728V29.49ZM97.0948 23.5H99.9048L104.995 37.5H102.405L101.505 35.02H95.5048L94.6048 37.5H92.0148L97.0948 23.5ZM96.3948 32.58H100.605L98.4948 26.81L96.3948 32.58ZM106.184 37.5L108.904 23.5H110.924L114.334 32.47L117.744 23.5H119.764L122.484 37.5H119.994L118.314 28.84L115.164 37.18H113.494L110.344 28.84L108.674 37.5H106.184ZM124.805 37.5V23.5H127.245V37.5H124.805ZM129.954 37.5V23.5H132.594L138.504 33.09V23.5H140.944V37.5H138.314L132.394 27.91V37.5H129.954ZM148.032 23.5H150.842L155.932 37.5H153.342L152.442 35.02H146.442L145.542 37.5H142.952L148.032 23.5ZM147.332 32.58H151.542L149.432 26.81L147.332 32.58Z" fill="#474DA4"/>
</svg>
