<svg width="161" height="48" viewBox="0 0 161 48" fill="none" xmlns="http://www.w3.org/2000/svg">
<path d="M48 24C48 37.2548 37.2548 48 24 48C10.7452 48 0 37.2548 0 24C0 10.7452 10.7452 0 24 0C37.2548 0 48 10.7452 48 24Z" fill="#474DA4"/>
<path d="M10.1311 25.0989C10.8703 23.8087 12.3859 22.257 15.4 22.257M37.8658 25.0989C37.1266 23.8087 35.611 22.257 32.5969 22.257M9.97217 28.8757C10.6433 27.5407 12.1511 25.738 15.4 25.738M38.0248 28.8757C37.3536 27.5407 35.8458 25.738 32.5969 25.738M9.97217 32.3976C10.6433 31.0627 12.1511 29.2599 15.4 29.2599M38.0248 32.3976C37.3536 31.0627 35.8458 29.2599 32.5969 29.2599M9.97217 30.3317C9.9778 30.3046 9.98693 30.2633 10.0003 30.2098C10.0279 30.0994 10.0735 29.9378 10.1436 29.7421C10.2843 29.3494 10.5211 28.8273 10.904 28.3074C11.6572 27.2849 12.996 26.238 15.4 26.238C16.6106 26.238 17.4871 26.5032 18.1793 26.8859C18.8789 27.2727 19.4163 27.7933 19.9383 28.3521C20.0355 28.4563 20.1328 28.5629 20.231 28.6705C21.1536 29.6815 22.1595 30.7837 23.9985 30.7837C25.8374 30.7837 26.8433 29.6815 27.766 28.6705C27.8642 28.5629 27.9615 28.4563 28.0587 28.3521C28.5807 27.7933 29.1181 27.2727 29.8177 26.8859C30.5098 26.5032 31.3863 26.238 32.5969 26.238C35.0009 26.238 36.3398 27.2849 37.0929 28.3074C37.4759 28.8273 37.7127 29.3494 37.8534 29.7421C37.9235 29.9378 37.969 30.0994 37.9966 30.2098C38.01 30.2633 38.0192 30.3046 38.0248 30.3317V31.4147C37.9842 31.3553 37.942 31.2958 37.8981 31.2363C36.9771 29.9859 35.352 28.7599 32.5969 28.7599C31.228 28.7599 30.1833 29.063 29.3338 29.5326C28.4919 29.9981 27.8672 30.614 27.3279 31.1915C27.2296 31.2967 27.1346 31.3998 27.0418 31.5004C26.085 32.5382 25.3774 33.3057 23.9985 33.3057C22.6195 33.3057 21.9119 32.5382 20.9551 31.5004C20.8624 31.3998 20.7673 31.2967 20.6691 31.1915C20.1297 30.614 19.5051 29.9981 18.6631 29.5326C17.8136 29.063 16.769 28.7599 15.4 28.7599C12.645 28.7599 11.0199 29.9859 10.0989 31.2363C10.055 31.2958 10.0128 31.3553 9.97217 31.4147V30.3317ZM9.97217 33.8536C9.9778 33.8266 9.98693 33.7852 10.0003 33.7317C10.0279 33.6213 10.0735 33.4597 10.1436 33.264C10.2843 32.8714 10.5211 32.3492 10.904 31.8293C11.6572 30.8068 12.996 29.7599 15.4 29.7599C16.6106 29.7599 17.4871 30.0251 18.1793 30.4078C18.8789 30.7946 19.4163 31.3152 19.9383 31.8741C20.0355 31.9782 20.1328 32.0848 20.231 32.1924C21.1536 33.2034 22.1595 34.3057 23.9985 34.3057C25.8374 34.3057 26.8433 33.2034 27.766 32.1924C27.8642 32.0848 27.9615 31.9782 28.0587 31.8741C28.5807 31.3152 29.1181 30.7946 29.8177 30.4078C30.5098 30.0251 31.3863 29.7599 32.5969 29.7599C35.0009 29.7599 36.3398 30.8068 37.0929 31.8293C37.4759 32.3492 37.7127 32.8714 37.8534 33.264C37.9235 33.4597 37.969 33.6213 37.9966 33.7317C38.01 33.7852 38.0192 33.8266 38.0248 33.8536V36.1314H9.97217V33.8536ZM10.2753 24.0051C10.8856 20.0357 12.3831 16.5251 14.4572 13.8736C16.9841 10.6431 20.3443 8.71033 23.9985 8.71033C27.6527 8.71033 31.0128 10.6431 33.5398 13.8736C35.6139 16.5251 37.1114 20.0357 37.7216 24.0051C37.6712 23.9429 37.6189 23.8809 37.5646 23.8192C36.5975 22.7201 35.0379 21.757 32.5969 21.757C31.228 21.757 30.1833 22.0601 29.3338 22.5297C28.4919 22.9952 27.8672 23.6111 27.3279 24.1886C27.2296 24.2938 27.1346 24.3969 27.0418 24.4975C26.085 25.5353 25.3774 26.3028 23.9985 26.3028C22.6195 26.3028 21.9119 25.5353 20.9551 24.4975C20.8624 24.3969 20.7673 24.2938 20.6691 24.1886C20.1297 23.6111 19.5051 22.9952 18.6631 22.5297C17.8136 22.0601 16.769 21.757 15.4 21.757C12.9591 21.757 11.3994 22.7201 10.4324 23.8192C10.3781 23.8809 10.3258 23.9429 10.2753 24.0051ZM36.8138 24.4798C37.5848 25.3561 37.8938 26.3229 37.9937 26.7172C38.0125 27.1059 38.0228 27.4977 38.0245 27.8924C37.984 27.8332 37.9419 27.7738 37.8981 27.7143C36.9771 26.464 35.352 25.238 32.5969 25.238C31.228 25.238 30.1833 25.541 29.3338 26.0107C28.4919 26.4762 27.8672 27.0921 27.3279 27.6696C27.2296 27.7748 27.1346 27.8779 27.0418 27.9785C26.085 29.0163 25.3774 29.7837 23.9985 29.7837C22.6195 29.7837 21.9119 29.0163 20.9551 27.9785C20.8624 27.8779 20.7673 27.7748 20.6691 27.6696C20.1297 27.0921 19.5051 26.4762 18.6631 26.0107C17.8136 25.541 16.769 25.238 15.4 25.238C12.645 25.238 11.0199 26.464 10.0989 27.7143C10.0551 27.7738 10.013 27.8332 9.97243 27.8924C9.97416 27.4977 9.98451 27.1059 10.0032 26.7172C10.1032 26.3229 10.4122 25.3561 11.1832 24.4798C11.9695 23.5861 13.26 22.757 15.4 22.757C16.6106 22.757 17.4871 23.0222 18.1793 23.4049C18.8789 23.7917 19.4163 24.3123 19.9383 24.8712C20.0355 24.9753 20.1328 25.0819 20.231 25.1895C21.1536 26.2005 22.1595 27.3028 23.9985 27.3028C25.8374 27.3028 26.8433 26.2005 27.766 25.1895C27.8642 25.0819 27.9615 24.9753 28.0587 24.8712C28.5807 24.3123 29.1181 23.7917 29.8177 23.4049C30.5098 23.0222 31.3863 22.757 32.5969 22.757C34.737 22.757 36.0275 23.5861 36.8138 24.4798Z" stroke="white"/>
<path d="M67.8 17.5V19.94H63.52V31.5H61.08V19.94H56.8V17.5H67.8ZM69.7977 31.5V17.5H78.5777V19.94H72.2377V22.78H77.2677V25.22H72.2377V29.06H78.5777V31.5H69.7977ZM80.8328 31.5V17.5H86.2028C86.9628 17.5 87.6495 17.69 88.2628 18.07C88.8761 18.45 89.3628 18.96 89.7228 19.6C90.0828 20.2333 90.2628 20.9367 90.2628 21.71C90.2628 22.3433 90.1461 22.9267 89.9128 23.46C89.6861 23.9867 89.3661 24.4433 88.9528 24.83C88.5461 25.2167 88.0761 25.51 87.5428 25.71L90.8928 31.5H88.0828L84.8428 25.93H83.2728V31.5H80.8328ZM83.2728 23.49H85.9228C86.2695 23.49 86.5861 23.4033 86.8728 23.23C87.1595 23.0567 87.3895 22.8233 87.5628 22.53C87.7361 22.2367 87.8228 21.91 87.8228 21.55C87.8228 21.1833 87.7361 20.8533 87.5628 20.56C87.3895 20.2667 87.1595 20.0333 86.8728 19.86C86.5861 19.6867 86.2695 19.6 85.9228 19.6H83.2728V23.49ZM97.0948 17.5H99.9048L104.995 31.5H102.405L101.505 29.02H95.5048L94.6048 31.5H92.0148L97.0948 17.5ZM96.3948 26.58H100.605L98.4948 20.81L96.3948 26.58ZM106.184 31.5L108.904 17.5H110.924L114.334 26.47L117.744 17.5H119.764L122.484 31.5H119.994L118.314 22.84L115.164 31.18H113.494L110.344 22.84L108.674 31.5H106.184ZM124.805 31.5V17.5H127.245V31.5H124.805ZM129.954 31.5V17.5H132.594L138.504 27.09V17.5H140.944V31.5H138.314L132.394 21.91V31.5H129.954ZM148.032 17.5H150.842L155.932 31.5H153.342L152.442 29.02H146.442L145.542 31.5H142.952L148.032 17.5ZM147.332 26.58H151.542L149.432 20.81L147.332 26.58Z" fill="#474DA4"/>
</svg>
