<svg width="25" height="25" viewBox="0 0 25 25" fill="none" xmlns="http://www.w3.org/2000/svg">
<g id="line-chart-up-01">
<path id="Icon" d="M21.5704 21.5703H5.17037C4.61032 21.5703 4.33029 21.5703 4.11638 21.4613C3.92822 21.3654 3.77524 21.2125 3.67937 21.0243C3.57037 20.8104 3.57037 20.5304 3.57037 19.9703V3.57031M20.5704 8.57031L16.6515 12.753C16.503 12.9115 16.4287 12.9907 16.3391 13.0317C16.2601 13.0679 16.1729 13.0828 16.0863 13.075C15.9882 13.0661 15.8918 13.0161 15.6991 12.916L12.4417 11.2246C12.2489 11.1245 12.1525 11.0745 12.0544 11.0656C11.9678 11.0578 11.8807 11.0728 11.8016 11.1089C11.712 11.1499 11.6378 11.2291 11.4892 11.3877L7.57037 15.5703" stroke="white" stroke-width="2" stroke-linecap="round" stroke-linejoin="round"/>
</g>
</svg>
