<svg width="25" height="25" viewBox="0 0 25 25" fill="none" xmlns="http://www.w3.org/2000/svg">
<g id="line-chart-up-01">
<path id="Icon" d="M21.5703 21.5703H5.17031C4.61026 21.5703 4.33023 21.5703 4.11632 21.4613C3.92816 21.3654 3.77518 21.2125 3.67931 21.0243C3.57031 20.8104 3.57031 20.5304 3.57031 19.9703V3.57031M20.5703 8.57031L16.6514 12.753C16.5029 12.9115 16.4287 12.9907 16.3391 13.0317C16.26 13.0679 16.1729 13.0828 16.0863 13.075C15.9882 13.0661 15.8918 13.0161 15.699 12.916L12.4416 11.2246C12.2489 11.1245 12.1525 11.0745 12.0543 11.0656C11.9678 11.0578 11.8806 11.0728 11.8015 11.1089C11.712 11.1499 11.6377 11.2291 11.4892 11.3877L7.57031 15.5703" stroke="#9E9E9E" stroke-width="2" stroke-linecap="round" stroke-linejoin="round"/>
</g>
</svg>
