<svg width="39" height="41" viewBox="0 0 39 41" fill="none" xmlns="http://www.w3.org/2000/svg">
<path d="M27.1252 33.7978L26.9363 34.2108C25.0226 38.1401 20.6037 40.2256 16.3239 39.1556L15.6879 38.9966L15.699 38.6548C15.875 35.9429 18.1303 33.7978 20.8867 33.7978C18.0155 33.7978 15.6879 31.4703 15.6879 28.5991L16.3239 28.4401C20.7513 27.3332 25.3275 29.6032 27.1252 33.7978ZM27.1252 33.7978L28.3473 27.0763C28.8262 24.4427 27.1388 21.9014 24.5258 21.3208C21.4117 20.6287 18.3587 19.6857 15.3967 18.5009L14.6482 18.2015C11.5083 16.9456 9.44939 13.9045 9.44939 10.5228V9.88347M27.1252 33.7978L30.1296 32.5103C32.8892 31.3276 35.1403 29.205 36.483 26.5196L36.6453 26.195C37.8825 23.7206 38.1937 20.8853 37.5228 18.2015C36.8666 15.5766 35.038 13.4002 32.5655 12.3014L31.8041 11.963C28.7192 10.5919 25.3809 9.88347 22.005 9.88347H15.6879M9.44939 9.88347C7.15243 9.88347 5.29037 8.02142 5.29037 5.72445V3.64494M9.44939 9.88347H15.6879M15.6879 9.88347H5.29037C2.9934 9.88347 1.13135 8.02142 1.13135 5.72445V1.56543M37.8354 21.8915L37.606 22.2598C35.9533 24.7852 33.0412 26.3044 29.9198 26.1094L28.4257 26.0151M36.5468 15.8347L32.7871 19.1762L32.3817 19.5166C30.3141 21.1555 27.6493 21.8473 25.0456 21.421M29.8388 11.1906L23.9901 16.5146L23.6199 16.8332C21.2302 18.7792 18.0023 19.3583 15.0845 18.3631L15.4463 18.4759" stroke="white" stroke-width="1.94954" stroke-linecap="round"/>
<path d="M17.7676 14.042H17.9755" stroke="white" stroke-width="2.92431" stroke-linecap="round"/>
</svg>
