<svg width="21" height="22" viewBox="0 0 21 22" fill="none" xmlns="http://www.w3.org/2000/svg">
<path d="M9.742 1.60352H6.00299C2.92799 1.60352 1 3.78052 1 6.86252V15.1765C1 18.2585 2.91899 20.4355 6.00299 20.4355H14.827C17.912 20.4355 19.831 18.2585 19.831 15.1765V11.1485" stroke="white" stroke-width="1.5" stroke-linecap="round" stroke-linejoin="round"/>
<path fill-rule="evenodd" clip-rule="evenodd" d="M7.07666 9.73495L14.5497 2.26195C15.4807 1.33195 16.9897 1.33195 17.9207 2.26195L19.1377 3.47896C20.0687 4.40996 20.0687 5.91997 19.1377 6.84997L11.6287 14.359C11.2217 14.766 10.6697 14.995 10.0937 14.995H6.34766L6.44165 11.215C6.45565 10.659 6.68266 10.1289 7.07666 9.73495Z" stroke="white" stroke-width="1.5" stroke-linecap="round" stroke-linejoin="round"/>
<path d="M13.4141 3.41699L17.98 7.983" stroke="white" stroke-width="1.5" stroke-linecap="round" stroke-linejoin="round"/>
</svg>
