<svg width="20" height="20" viewBox="0 0 20 20" fill="none" xmlns="http://www.w3.org/2000/svg">
<path d="M8.23401 15.8633H1" stroke="white" stroke-width="1.5" stroke-linecap="round" stroke-linejoin="round"/>
<path fill-rule="evenodd" clip-rule="evenodd" d="M19.2346 15.8624C19.2346 17.4524 17.9446 18.7424 16.3546 18.7424C14.7636 18.7424 13.4746 17.4524 13.4746 15.8624C13.4746 14.2704 14.7636 12.9824 16.3546 12.9824C17.9446 12.9824 19.2346 14.2704 19.2346 15.8624Z" stroke="white" stroke-width="1.5" stroke-linecap="round" stroke-linejoin="round"/>
<path d="M12 4.1377H19.235" stroke="white" stroke-width="1.5" stroke-linecap="round" stroke-linejoin="round"/>
<path fill-rule="evenodd" clip-rule="evenodd" d="M1 4.13782C1 5.72982 2.289 7.01782 3.88 7.01782C5.47 7.01782 6.76001 5.72982 6.76001 4.13782C6.76001 2.54782 5.47 1.25781 3.88 1.25781C2.289 1.25781 1 2.54782 1 4.13782Z" stroke="white" stroke-width="1.5" stroke-linecap="round" stroke-linejoin="round"/>
</svg>
