<svg width="21" height="22" viewBox="0 0 21 22" fill="none" xmlns="http://www.w3.org/2000/svg">
<path d="M5.46875 13.9011L8.46176 10.0101L11.8757 12.6921L14.8047 8.91211" stroke="white" stroke-width="1.5" stroke-linecap="round" stroke-linejoin="round"/>
<path d="M18.2191 5.24185C19.2807 5.24185 20.1413 4.38127 20.1413 3.31967C20.1413 2.25807 19.2807 1.39746 18.2191 1.39746C17.1575 1.39746 16.2969 2.25807 16.2969 3.31967C16.2969 4.38127 17.1575 5.24185 18.2191 5.24185Z" stroke="white" stroke-width="1.5" stroke-linecap="round" stroke-linejoin="round"/>
<path d="M13.147 2.24023H5.879C2.867 2.24023 1 4.37325 1 7.38425V15.4672C1 18.4782 2.831 20.6022 5.879 20.6022H14.483C17.494 20.6022 19.362 18.4782 19.362 15.4672V8.42825" stroke="white" stroke-width="1.5" stroke-linecap="round" stroke-linejoin="round"/>
</svg>
