<svg width="21" height="22" viewBox="0 0 21 22" fill="none" xmlns="http://www.w3.org/2000/svg">
<path d="M14.1792 17.7426L14.0834 17.952C13.1131 19.9441 10.8727 21.0015 8.70276 20.459L8.38034 20.3784L8.38594 20.2051C8.47519 18.8301 9.61867 17.7426 11.0162 17.7426C9.56044 17.7426 8.38034 16.5625 8.38034 15.1067L8.70276 15.0261C10.9475 14.4649 13.2677 15.6158 14.1792 17.7426ZM14.1792 17.7426L14.7988 14.3346C15.0416 12.9994 14.186 11.711 12.8613 11.4166C11.2823 11.0657 9.73444 10.5876 8.2327 9.98687L7.85317 9.83506C6.26122 9.19828 5.21734 7.65643 5.21734 5.94185V5.61773M14.1792 17.7426L15.7024 17.0898C17.1016 16.4901 18.2429 15.4139 18.9237 14.0524L19.006 13.8878C19.6332 12.6333 19.791 11.1958 19.4508 9.83506C19.1181 8.50421 18.191 7.40077 16.9374 6.84363L16.5514 6.67206C14.9873 5.97691 13.2948 5.61773 11.5832 5.61773H8.38034M5.21734 5.61773C4.05275 5.61773 3.10867 4.67364 3.10867 3.50906V2.45472M5.21734 5.61773H8.38034M8.38034 5.61773H3.10867C1.94408 5.61773 1 4.67364 1 3.50906V1.40039M19.6093 11.7059L19.493 11.8926C18.6551 13.1731 17.1786 13.9433 15.5961 13.8444L14.8385 13.7966M18.956 8.63509L17.0498 10.3292L16.8443 10.5018C15.796 11.3328 14.4449 11.6835 13.1248 11.4674M15.555 6.28046L12.5896 8.97976L12.4019 9.14129C11.1903 10.1279 9.55373 10.4215 8.07437 9.91697L8.25783 9.97415M9.43467 7.72639H9.5401" stroke="white" stroke-width="1.5" stroke-linecap="round"/>
</svg>
