<svg width="22" height="22" viewBox="0 0 22 22" fill="none" xmlns="http://www.w3.org/2000/svg">
<path fill-rule="evenodd" clip-rule="evenodd" d="M15.2841 0.999023H18.5512C19.9033 0.999023 20.9994 2.10508 20.9994 3.46915V6.76333C20.9994 8.1264 19.9033 9.23344 18.5512 9.23344H15.2841C13.932 9.23344 12.8359 8.1264 12.8359 6.76333V3.46915C12.8359 2.10508 13.932 0.999023 15.2841 0.999023Z" stroke="white" stroke-width="1.5" stroke-linecap="round" stroke-linejoin="round"/>
<path fill-rule="evenodd" clip-rule="evenodd" d="M3.44913 0.999023H6.71428C8.06735 0.999023 9.16341 2.10508 9.16341 3.46915V6.76333C9.16341 8.1264 8.06735 9.23344 6.71428 9.23344H3.44913C2.09606 9.23344 1 8.1264 1 6.76333V3.46915C1 2.10508 2.09606 0.999023 3.44913 0.999023Z" stroke="white" stroke-width="1.5" stroke-linecap="round" stroke-linejoin="round"/>
<path fill-rule="evenodd" clip-rule="evenodd" d="M3.44913 12.7656H6.71428C8.06735 12.7656 9.16341 13.8717 9.16341 15.2367V18.5299C9.16341 19.894 8.06735 21 6.71428 21H3.44913C2.09606 21 1 19.894 1 18.5299V15.2367C1 13.8717 2.09606 12.7656 3.44913 12.7656Z" stroke="white" stroke-width="1.5" stroke-linecap="round" stroke-linejoin="round"/>
<path fill-rule="evenodd" clip-rule="evenodd" d="M15.2841 12.7656H18.5512C19.9033 12.7656 20.9994 13.8717 20.9994 15.2367V18.5299C20.9994 19.894 19.9033 21 18.5512 21H15.2841C13.932 21 12.8359 19.894 12.8359 18.5299V15.2367C12.8359 13.8717 13.932 12.7656 15.2841 12.7656Z" stroke="white" stroke-width="1.5" stroke-linecap="round" stroke-linejoin="round"/>
</svg>
