<svg width="28" height="29" viewBox="0 0 28 29" fill="none" xmlns="http://www.w3.org/2000/svg">
<g id="icon_plot">
<path id="Vector" d="M2.71483 3.14429H5.00001V23.711H25.5667V25.9961H2.71483V3.14429ZM10.713 12.285C11.6221 12.285 12.4939 12.6462 13.1368 13.289C13.7796 13.9318 14.1408 14.8037 14.1408 15.7128C14.1408 16.6219 13.7796 17.4938 13.1368 18.1366C12.4939 18.7794 11.6221 19.1406 10.713 19.1406C9.80387 19.1406 8.93201 18.7794 8.28917 18.1366C7.64634 17.4938 7.2852 16.6219 7.2852 15.7128C7.2852 14.8037 7.64634 13.9318 8.28917 13.289C8.93201 12.6462 9.80387 12.285 10.713 12.285ZM15.2833 3.14429C16.1925 3.14429 17.0643 3.50543 17.7072 4.14826C18.35 4.79109 18.7111 5.66296 18.7111 6.57207C18.7111 7.48117 18.35 8.35304 17.7072 8.99587C17.0643 9.6387 16.1925 9.99984 15.2833 9.99984C14.3742 9.99984 13.5024 9.6387 12.8595 8.99587C12.2167 8.35304 11.8556 7.48117 11.8556 6.57207C11.8556 5.66296 12.2167 4.79109 12.8595 4.14826C13.5024 3.50543 14.3742 3.14429 15.2833 3.14429ZM20.9963 14.5702C21.9054 14.5702 22.7773 14.9314 23.4201 15.5742C24.063 16.217 24.4241 17.0889 24.4241 17.998C24.4241 18.9071 24.063 19.779 23.4201 20.4218C22.7773 21.0646 21.9054 21.4258 20.9963 21.4258C20.0872 21.4258 19.2153 21.0646 18.5725 20.4218C17.9297 19.779 17.5685 18.9071 17.5685 17.998C17.5685 17.0889 17.9297 16.217 18.5725 15.5742C19.2153 14.9314 20.0872 14.5702 20.9963 14.5702Z" fill="#9E9E9E"/>
</g>
</svg>
