<svg width="17" height="22" viewBox="0 0 17 22" fill="none" xmlns="http://www.w3.org/2000/svg">
<path d="M8.5788 10.9447C11.2176 10.9447 13.3569 8.80555 13.3569 6.16672C13.3569 3.52788 11.2176 1.38867 8.5788 1.38867C5.93996 1.38867 3.80078 3.52788 3.80078 6.16672C3.80078 8.80555 5.93996 10.9447 8.5788 10.9447Z" stroke="white" stroke-width="1.5" stroke-linecap="round" stroke-linejoin="round"/>
<path fill-rule="evenodd" clip-rule="evenodd" d="M1.00001 17.5899C0.99901 17.2549 1.07398 16.9229 1.21998 16.6199C1.67698 15.7049 2.96801 15.2199 4.03901 14.9999C4.81101 14.8349 5.59403 14.725 6.38203 14.671C7.84103 14.542 9.30804 14.542 10.767 14.671C11.554 14.726 12.337 14.8359 13.11 14.9999C14.181 15.2199 15.471 15.6589 15.929 16.6199C16.222 17.2369 16.222 17.953 15.929 18.57C15.471 19.531 14.181 19.9699 13.11 20.1809C12.338 20.3519 11.555 20.466 10.767 20.519C9.57904 20.62 8.38703 20.638 7.19703 20.574C6.92203 20.574 6.65703 20.574 6.38203 20.519C5.59703 20.466 4.81598 20.3529 4.04798 20.1809C2.96798 19.9699 1.68698 19.531 1.21998 18.57C1.07498 18.264 1.00001 17.9289 1.00001 17.5899Z" stroke="white" stroke-width="1.5" stroke-linecap="round" stroke-linejoin="round"/>
</svg>
