<svg width="25" height="25" viewBox="0 0 25 25" fill="none" xmlns="http://www.w3.org/2000/svg">
<g id="icon_table">
<path id="Icon" d="M3.71106 9.57031H21.7111M9.71106 9.57031L9.71106 21.5703M8.51106 3.57031H16.9111C18.5912 3.57031 19.4313 3.57031 20.073 3.89729C20.6375 4.18491 21.0965 4.64385 21.3841 5.20834C21.7111 5.85008 21.7111 6.69016 21.7111 8.37031V16.7703C21.7111 18.4505 21.7111 19.2905 21.3841 19.9323C21.0965 20.4968 20.6375 20.9557 20.073 21.2433C19.4313 21.5703 18.5912 21.5703 16.9111 21.5703H8.51106C6.8309 21.5703 5.99082 21.5703 5.34909 21.2433C4.7846 20.9557 4.32566 20.4968 4.03804 19.9323C3.71106 19.2905 3.71106 18.4505 3.71106 16.7703V8.37031C3.71106 6.69015 3.71106 5.85008 4.03804 5.20834C4.32566 4.64385 4.7846 4.18491 5.34909 3.89729C5.99082 3.57031 6.8309 3.57031 8.51106 3.57031Z" stroke="#9E9E9E" stroke-width="2" stroke-linecap="round" stroke-linejoin="round"/>
</g>
</svg>
