<svg width="25" height="25" viewBox="0 0 25 25" fill="none" xmlns="http://www.w3.org/2000/svg">
<g id="icon_table">
<path id="Icon" d="M3.71118 9.57031H21.7112M9.71118 9.57031L9.71118 21.5703M8.51118 3.57031H16.9112C18.5913 3.57031 19.4314 3.57031 20.0732 3.89729C20.6376 4.18491 21.0966 4.64385 21.3842 5.20834C21.7112 5.85008 21.7112 6.69016 21.7112 8.37031V16.7703C21.7112 18.4505 21.7112 19.2905 21.3842 19.9323C21.0966 20.4968 20.6376 20.9557 20.0732 21.2433C19.4314 21.5703 18.5913 21.5703 16.9112 21.5703H8.51118C6.83102 21.5703 5.99095 21.5703 5.34921 21.2433C4.78472 20.9557 4.32578 20.4968 4.03816 19.9323C3.71118 19.2905 3.71118 18.4505 3.71118 16.7703V8.37031C3.71118 6.69015 3.71118 5.85008 4.03816 5.20834C4.32578 4.64385 4.78472 4.18491 5.34921 3.89729C5.99095 3.57031 6.83102 3.57031 8.51118 3.57031Z" stroke="white" stroke-width="2" stroke-linecap="round" stroke-linejoin="round"/>
</g>
</svg>
