<svg width="39" height="39" viewBox="0 0 39 39" fill="none" xmlns="http://www.w3.org/2000/svg">
<path d="M36.615 11.8925C36.474 11.5882 36.1252 11.2765 35.8209 11.1874C35.6725 11.1429 33.676 11.1132 30.7518 11.1132L25.935 11.1132L26.5584 10.4675C27.59 9.39135 27.9092 8.44135 27.6568 7.23901C27.4119 6.08862 26.6623 5.26479 25.4154 4.76753C23.9682 4.19604 23.1146 3.64682 21.8826 2.46674C20.9549 1.57612 20.8807 1.55385 20.2572 1.9101C19.7971 2.17729 19.3963 2.69682 19.2701 3.19409C19.2182 3.38706 19.1588 3.54292 19.1365 3.54292C19.1143 3.53549 18.7432 3.25346 18.3127 2.91206C17.5408 2.28862 17.3478 2.19956 17.0139 2.32573C16.8654 2.3851 16.5908 2.9269 16.4275 3.46128C16.2791 3.96596 16.2717 5.07182 16.4127 5.6062C16.5092 5.96987 16.5092 5.99214 16.3978 5.96245C16.331 5.94018 15.7521 5.7769 15.1064 5.59135C14.4682 5.40581 13.8299 5.24995 13.6889 5.24995C13.34 5.24995 13.199 5.43549 13.0951 6.02182C12.917 7.05346 13.2955 8.10737 14.1193 8.87182C14.676 9.39878 15.5146 10.0445 16.383 10.6234L17.0064 11.039L12.5014 11.039C7.55839 11.039 7.7662 11.0242 7.38027 11.4843C7.08339 11.8331 7.03144 12.1523 7.03144 13.7257L7.03144 15.1804L6.80878 15.4031C6.51191 15.7074 6.51191 16.0117 6.80878 16.2566L7.03144 16.4496L7.03144 19.2624L7.03144 22.0679L6.77167 22.1941C6.31894 22.4093 6.33378 22.9956 6.78652 23.2109L7.03144 23.3222L7.03144 25.1331C7.03144 26.8179 7.03886 26.9589 7.1873 27.2113C7.26894 27.3597 7.45448 27.5675 7.60292 27.664L7.87753 27.8496L12.3975 27.8867L16.9248 27.9238L16.2643 28.3617C15.292 29.0074 14.2232 29.8386 13.8299 30.2617C13.3326 30.7886 13.0283 31.4788 12.9838 32.1617C12.917 33.2081 13.1025 33.6757 13.585 33.6757C13.7185 33.6757 14.3791 33.5199 15.0619 33.3269C15.7447 33.1414 16.3236 32.9929 16.3385 33.0152C16.3607 33.03 16.3236 33.2453 16.2643 33.4902C16.0639 34.3734 16.1826 35.4273 16.5685 36.2066C16.7689 36.5925 17.0064 36.7558 17.2959 36.6742C17.385 36.6519 17.808 36.355 18.2385 36.021L19.0178 35.405L19.1439 35.8281C19.3666 36.5406 20.1978 37.3124 20.7471 37.3124C20.851 37.3124 21.2072 37.0304 21.749 36.5257C22.9662 35.3753 24.124 34.6406 25.3412 34.2398C25.8459 34.0691 26.5361 33.6164 26.833 33.2601C27.4564 32.5105 27.7459 31.516 27.5975 30.6031C27.4787 29.8535 27.167 29.282 26.5139 28.5695L25.9498 27.9609L30.915 27.946L35.8803 27.9238L36.1475 27.716C36.7264 27.2781 36.6818 27.9164 36.6967 19.5742C36.7115 13.4363 36.6967 12.0781 36.615 11.8925ZM33.9728 26.7585C33.1342 26.7734 26.9963 26.7585 20.3389 26.7289L8.21894 26.6843L8.21894 25.0144L8.21894 23.3519L8.44159 23.1589C8.60488 23.0253 8.66425 22.9066 8.66425 22.7359C8.66425 22.4687 8.48613 22.1718 8.32284 22.1718C8.23378 22.1718 8.21894 21.7562 8.21894 19.3218L8.21894 16.4718L8.44159 16.3828C8.70136 16.2714 8.81269 16.1081 8.81269 15.8187C8.81269 15.5812 8.55292 15.2695 8.35253 15.2695C8.22636 15.2695 8.21894 15.1878 8.23378 13.7703L8.25605 12.2636L10.4455 12.2414C11.6478 12.2265 17.7857 12.2414 24.0869 12.271L35.5314 12.3156L35.5166 19.5296L35.4943 26.7363L33.9728 26.7585ZM26.4322 8.58979C26.3283 8.94604 26.2021 9.10932 25.2967 10.0222L24.2799 11.0539L21.8678 11.0464L19.4631 11.0316L18.6838 10.6234C17.2068 9.83667 15.1881 8.39682 14.6908 7.75854C14.4756 7.48393 14.1713 6.69721 14.2455 6.61557C14.2752 6.58588 16.1752 7.12768 18.6689 7.87729C20.1014 8.30776 21.1627 8.53042 21.3853 8.44135C21.6303 8.35229 21.7564 8.15932 21.7564 7.88471C21.7564 7.4394 21.6971 7.40971 20.2795 7.09799C19.8713 7.01635 19.233 6.84565 18.8545 6.7269C18.2088 6.51909 18.1643 6.4894 17.9564 6.15542C17.6299 5.63589 17.4963 5.17573 17.4963 4.51518C17.4963 4.19604 17.5185 3.92143 17.5408 3.89174C17.5705 3.86948 18.2459 4.37417 19.0475 5.01987C20.9326 6.53393 21.5041 6.87534 22.6322 7.14253C23.3076 7.29839 23.56 7.28354 23.7678 7.06831C24.2057 6.63784 23.9014 6.22221 22.9885 5.99956C22.2463 5.82143 21.4447 5.44292 21.0143 5.07182C20.6135 4.73042 20.2869 4.02534 20.3611 3.64682C20.3908 3.49839 20.4873 3.29057 20.5764 3.18667L20.7471 2.98628L21.4447 3.65424C22.4615 4.64135 23.6045 5.36128 24.9924 5.88081C26.2244 6.34839 26.7885 7.40229 26.4322 8.58979ZM26.2467 31.9613C26.0166 32.4957 25.5787 32.8667 24.8439 33.1488C23.367 33.7203 22.276 34.4031 21.2443 35.3976C20.9103 35.7167 20.6135 35.9765 20.5838 35.9765C20.5615 35.9765 20.4725 35.8652 20.3908 35.739C20.0568 35.1898 20.324 34.3363 20.9697 33.8613C21.4892 33.4828 22.1795 33.171 22.7881 33.0374C23.0775 32.9706 23.4041 32.8816 23.508 32.8296C23.7752 32.7035 23.9014 32.4066 23.8049 32.1468C23.6342 31.7089 23.3596 31.657 22.4244 31.8945C21.3853 32.1542 20.6506 32.5847 18.9881 33.8984C17.8303 34.8261 17.4592 35.0785 17.4072 35.0042C17.2736 34.8113 17.3924 33.7203 17.5853 33.2898C17.9342 32.5328 18.0307 32.466 19.2553 32.132C19.8639 31.9613 20.4873 31.8054 20.6506 31.7831C21.3482 31.6644 21.5115 31.5976 21.608 31.3675C21.8158 30.8703 21.5486 30.514 20.992 30.5363C20.5912 30.5511 19.1068 30.9296 16.4572 31.6941C13.9412 32.4214 14.1564 32.3769 14.1564 32.1691C14.1564 32.0726 14.2603 31.7906 14.3865 31.5382C14.5721 31.1597 14.7279 30.989 15.292 30.5363C16.4795 29.5937 17.7709 28.7476 18.9435 28.1687L19.4631 27.9089L21.8381 27.9386L24.2131 27.9757L25.0889 28.8367C25.5713 29.3191 26.0389 29.8238 26.1279 29.9648C26.499 30.566 26.5435 31.2785 26.2467 31.9613Z" fill="white"/>
<path d="M33.8317 16.4867C33.7278 16.2566 33.4606 16.0859 33.1935 16.0859C32.4958 16.0785 31.7462 15.314 31.7462 14.6015C31.7462 14.4456 31.6794 14.2972 31.531 14.1488L31.3157 13.9335L23.9384 13.9187C11.4548 13.8816 12.4048 13.8742 12.2267 14.0449C12.1376 14.1414 12.0485 14.3714 12.004 14.6386C11.9595 14.891 11.8556 15.1878 11.7368 15.3511C11.5142 15.6777 10.9056 16.0117 10.5493 16.0117C10.4009 16.0117 10.2228 16.0785 10.0966 16.1898L9.88877 16.3679L9.8665 19.4257L9.84424 22.4761L10.0669 22.6914C10.2228 22.8472 10.3563 22.914 10.5345 22.914C11.2692 22.9214 12.004 23.6859 12.004 24.4503C12.004 24.5394 12.0263 24.6656 12.0485 24.7324C12.1747 25.0515 11.9892 25.0441 21.9345 25.0738L31.3899 25.1035L31.5235 24.9402C31.5978 24.8437 31.6794 24.6062 31.7091 24.4132C31.813 23.6414 32.3474 23.0996 33.0821 23.0105C33.3567 22.9808 33.5349 22.914 33.6536 22.7953C33.8169 22.632 33.8243 22.5652 33.8243 21.63C33.8243 21.0808 33.8392 19.7374 33.8614 18.639C33.8837 17.4515 33.8763 16.5757 33.8317 16.4867ZM32.6368 21.0585L32.6368 21.8453L32.1618 22.0456C31.4419 22.3648 30.8704 23.0105 30.6032 23.8269C30.5587 23.9753 30.2024 23.9828 27.2114 23.9011L25.3856 23.8566L25.8013 23.441C27.9833 21.2589 27.9759 17.7113 25.7938 15.5515L25.356 15.121L27.9981 15.121C30.1505 15.121 30.6329 15.1359 30.6329 15.2175C30.6329 15.455 31.1079 16.2417 31.4196 16.5312C31.6052 16.7019 31.9763 16.9394 32.2435 17.0656L32.7333 17.2882L32.6888 18.78C32.6591 19.6039 32.6368 20.6281 32.6368 21.0585ZM26.1056 20.5761C25.4153 23.2628 22.4021 24.6581 19.9083 23.4261C18.8024 22.8843 17.9712 21.8824 17.6001 20.6503C17.3997 19.9824 17.4146 18.8691 17.6372 18.2011C18.1196 16.7687 19.1216 15.7445 20.5021 15.2917C21.3407 15.0171 22.4095 15.0171 23.1962 15.2917C23.9681 15.5589 24.4876 15.8929 25.0442 16.4867C25.5638 17.0285 25.9794 17.7929 26.1501 18.4906C26.2911 19.0769 26.2763 19.923 26.1056 20.5761ZM17.3774 16.1972C16.1899 17.8671 15.9747 19.9824 16.7985 21.7859C17.1103 22.4687 17.6075 23.1738 18.0603 23.5746L18.4091 23.8789L15.7669 23.8789L13.1321 23.8789L13.0134 23.53C12.761 22.8027 12.1228 22.1496 11.3954 21.8898L11.0392 21.7636L11.0392 19.448C11.0392 17.6371 11.0614 17.1249 11.1356 17.1249C11.3509 17.1249 12.0263 16.739 12.3603 16.4273C12.6868 16.1156 12.9169 15.7593 13.1099 15.2546L13.1915 15.0468L14.4384 15.0468C15.1286 15.0468 16.2938 15.0691 17.036 15.0988L18.3794 15.1433L18.0454 15.4402C17.8673 15.596 17.563 15.9449 17.3774 16.1972Z" fill="white"/>
<path d="M30.195 19.0473C30.0317 18.8914 29.9055 18.832 29.7051 18.832C29.5047 18.832 29.3785 18.8914 29.2153 19.0473C28.911 19.3516 28.9184 19.7227 29.2227 20.0344C29.4305 20.2348 29.4899 20.257 29.7645 20.2199C30.3879 20.1383 30.6254 19.4852 30.195 19.0473Z" fill="white"/>
<path d="M23.5452 17.9859C23.4265 17.6519 23.1296 17.3179 22.8327 17.1992C22.6991 17.1398 22.6175 17.0507 22.6175 16.9617C22.6175 16.7242 22.4839 16.5534 22.2464 16.4644C21.8753 16.3382 21.5636 16.5163 21.4671 16.9097C21.4374 17.021 21.3112 17.1546 21.1554 17.2437C21.0069 17.3179 20.7917 17.5331 20.6729 17.7113C20.3019 18.305 20.428 19.2327 20.9476 19.6335C21.0589 19.7226 21.4226 19.9304 21.7714 20.1085C22.4616 20.4574 22.5878 20.6355 22.3206 20.8507C22.2315 20.9249 22.0905 20.9843 22.0163 20.9843C21.8382 20.9843 21.5784 20.7245 21.5784 20.5464C21.5784 20.3386 21.3483 20.1011 21.0886 20.0492C20.9104 20.012 20.814 20.0492 20.6433 20.1902C20.4651 20.346 20.428 20.4277 20.4354 20.7097C20.4429 21.155 20.7546 21.6745 21.1331 21.8898C21.2964 21.9863 21.43 22.1124 21.43 22.1792C21.43 22.246 21.4968 22.387 21.5858 22.4984C21.7046 22.6468 21.8011 22.6913 22.0237 22.6913C22.2464 22.6913 22.3429 22.6468 22.4616 22.4984C22.5507 22.387 22.6175 22.246 22.6249 22.1792C22.6249 22.1124 22.7808 21.964 22.9663 21.8378C23.7233 21.348 23.8644 20.3312 23.2632 19.6706C23.1296 19.5296 22.7214 19.255 22.3577 19.062C21.8233 18.7949 21.6823 18.6835 21.6675 18.5425C21.6155 18.2011 22.1054 18.0304 22.3429 18.2976C22.4171 18.3718 22.469 18.5054 22.469 18.587C22.469 18.6761 22.5729 18.832 22.7065 18.9433C22.9812 19.1734 23.2335 19.1511 23.4933 18.8617C23.6788 18.6464 23.6937 18.4015 23.5452 17.9859Z" fill="white"/>
<path d="M14.6462 19.1363C14.4161 18.7207 13.8892 18.6391 13.5552 18.973C13.2583 19.2773 13.2583 19.6484 13.5552 19.9527C13.9114 20.3016 14.4161 20.2348 14.6388 19.7969C14.7724 19.5371 14.7798 19.3738 14.6462 19.1363Z" fill="white"/>
<path d="M12.4567 8.5822C12.3231 8.41892 12.2489 8.40408 11.529 8.38181C10.7794 8.35212 10.7423 8.35955 10.5567 8.54509C10.3118 8.79001 10.3118 9.13142 10.5567 9.36892C10.72 9.53962 10.7868 9.55447 11.4845 9.55447C12.1821 9.55447 12.2489 9.53962 12.4122 9.36892C12.6349 9.15369 12.6497 8.8197 12.4567 8.5822Z" fill="white"/>
<path d="M12.338 29.5566C12.1747 29.3859 12.1079 29.3711 11.388 29.3711C10.6829 29.3711 10.6087 29.3859 10.4603 29.5418C10.1857 29.8312 10.2525 30.2691 10.6013 30.4473C10.8536 30.5809 11.9372 30.5957 12.1747 30.4695C12.5607 30.2691 12.6349 29.8535 12.338 29.5566Z" fill="white"/>
<path d="M9.2651 8.58242L9.04987 8.36719L7.99596 8.36719C6.98658 8.36719 6.94205 8.37461 6.77135 8.55273C6.57096 8.7457 6.54127 8.93125 6.66744 9.20586C6.80104 9.49531 7.03854 9.55469 8.0776 9.55469L9.04987 9.55469L9.2651 9.33945C9.53971 9.06484 9.53971 8.85703 9.2651 8.58242Z" fill="white"/>
<path d="M9.29518 29.6828C9.24322 29.5641 9.14674 29.4453 9.07252 29.4156C9.00572 29.3934 8.47135 29.3711 7.88502 29.3711C6.82369 29.3711 6.81627 29.3711 6.66783 29.5641C6.46002 29.8238 6.47487 30.0613 6.6901 30.3137L6.86822 30.5215L7.9444 30.5215C8.87955 30.5215 9.04283 30.5066 9.16901 30.3879C9.36197 30.2098 9.40651 29.9574 9.29518 29.6828Z" fill="white"/>
<path d="M5.52452 15.4475C5.35381 15.2546 5.32413 15.2472 4.38897 15.21C3.81006 15.1952 3.34991 15.21 3.23116 15.262C2.9417 15.3733 2.77842 15.6554 2.8378 15.9374C2.91944 16.3233 3.09014 16.3753 4.27764 16.3901L5.35381 16.405L5.52452 16.2046C5.73975 15.9522 5.73975 15.6999 5.52452 15.4475Z" fill="white"/>
<path d="M5.45792 22.4242C5.33175 22.157 5.07199 22.0977 4.03292 22.0977C3.15714 22.0977 3.03097 22.1125 2.89738 22.2461C2.80831 22.3203 2.71925 22.4613 2.68956 22.543C2.61534 22.7656 2.77863 23.0996 2.99386 23.2035C3.18683 23.2926 4.99777 23.3223 5.213 23.2406C5.33917 23.1887 5.54699 22.8324 5.53956 22.6766C5.53956 22.6246 5.50245 22.5059 5.45792 22.4242Z" fill="white"/>
</svg>
