<svg width="45" height="29" viewBox="0 0 45 29" fill="none" xmlns="http://www.w3.org/2000/svg">
<path d="M33.2068 1.84132C31.2188 4.16089 30.0457 5.23074 28.219 6.37632C26.043 7.73967 23.6162 8.59175 20.9388 8.91365C20.4462 8.97993 20.0254 9.03673 20.0075 9.05567C19.9806 9.09354 24.0192 19.4227 24.1087 19.5364C24.1625 19.5932 28.6398 18.9778 30.0726 18.7127C32.4367 18.2772 35.0156 17.1884 37.0573 15.7872C38.5259 14.7741 39.3587 14.0167 41.8302 11.432L44.2659 8.86631L39.5915 4.74789C37.0215 2.48512 34.8276 0.553717 34.7201 0.468508C34.5231 0.298092 34.5142 0.307558 33.2068 1.84132ZM38.4811 5.74199L42.1347 8.96099L40.1736 11.006C37.6752 13.6191 36.4484 14.6037 34.2813 15.6925C33.0635 16.3079 31.4427 16.8854 30.2069 17.141C28.7921 17.4345 25.0938 17.9363 25.0132 17.8416C24.9326 17.7564 22.0581 10.4663 22.0581 10.3527C22.0581 10.3149 22.5148 10.1918 23.07 10.0782C24.5475 9.77521 26.1952 9.16928 27.6906 8.38346C29.9383 7.20948 31.4785 5.97868 33.368 3.87686C34.0217 3.15732 34.5589 2.53246 34.5769 2.47565C34.5948 2.41884 34.6574 2.40938 34.7201 2.44725C34.7828 2.49459 36.4753 3.97154 38.4811 5.74199Z" fill="#FBF7FF"/>
<path d="M33.6002 5.84558L32.6689 6.83022L33.1883 7.36987L33.6987 7.91899L34.1733 7.41721L34.6569 6.91542L36.2419 8.30717L37.8269 9.70838L37.3971 10.1628L36.9672 10.6173L37.4866 11.1664L37.997 11.7061L38.9821 10.6646L39.9671 9.62317L37.4418 7.39827C36.0538 6.17695 34.827 5.09764 34.7285 5.01243C34.5405 4.86094 34.5136 4.87988 33.6002 5.84558Z" fill="#FBF7FF"/>
<path d="M31.0125 9.03613C30.5737 9.18761 29.8215 10.0018 29.6872 10.4847C29.4364 11.3746 29.6155 12.0847 30.2513 12.7474C30.708 13.2398 31.1647 13.4575 31.7288 13.4575C32.8392 13.4575 33.878 12.3593 33.878 11.1853C33.878 10.5888 33.672 10.106 33.2064 9.62312C32.5796 8.95092 31.8453 8.76156 31.0125 9.03613ZM32.2214 10.6646C32.3646 10.8066 32.4452 11.0054 32.4452 11.1853C32.4452 11.3652 32.3646 11.564 32.2214 11.706C32.087 11.8575 31.899 11.9427 31.7288 11.9427C31.5587 11.9427 31.3707 11.8575 31.2363 11.706C31.0931 11.564 31.0125 11.3652 31.0125 11.1853C31.0125 11.0054 31.0931 10.8066 31.2363 10.6646C31.3707 10.5131 31.5587 10.4279 31.7288 10.4279C31.899 10.4279 32.087 10.5131 32.2214 10.6646Z" fill="#FBF7FF"/>
<path d="M25.3438 11.053C24.7528 11.3654 24.3856 11.6211 24.4125 11.6873C24.9767 13.2021 26.2841 16.6389 26.302 16.6484C26.3647 16.7241 29.0421 15.6921 29.0421 15.6069C29.0421 15.3608 28.6481 14.3099 28.5496 14.3099C28.4959 14.3099 28.1466 14.414 27.7885 14.5466C27.4303 14.6791 27.1258 14.7738 27.1169 14.7548C27.1079 14.7454 26.893 14.1963 26.6422 13.524L26.1856 12.3217L26.5617 12.1228C26.7676 12.0092 26.9557 11.9051 26.9736 11.8861C27.0273 11.8388 26.4273 10.5228 26.3647 10.5323C26.3378 10.5323 25.8721 10.769 25.3438 11.053Z" fill="#FBF7FF"/>
<path d="M15.297 0.97955C12.5299 1.82217 11.9479 1.93578 10.5062 1.86951C6.68249 1.68962 6.38698 1.68962 5.40196 1.90738C4.15725 2.17247 2.9394 2.6932 1.68573 3.47901C0.870848 3.99026 0.682798 4.15121 0.745481 4.26483C1.31859 5.40094 5.70642 12.9372 5.78701 12.9277C5.8497 12.9183 6.21684 12.6721 6.61085 12.3786C8.26748 11.1194 9.81665 10.5703 12.1628 10.4283C14.5627 10.2863 15.5567 9.98329 18.1356 8.61994L19.7296 7.77732L19.4699 7.04832C18.7356 4.96543 17.1327 0.449362 17.1058 0.439895C17.0969 0.430427 16.282 0.667118 15.297 0.97955ZM16.8641 3.99026C17.1864 4.89916 17.5625 5.95954 17.6968 6.33824L17.9386 7.02938L16.6581 7.68265C14.9925 8.5442 14.0791 8.79036 12.1628 8.91344C11.3748 8.96078 10.4077 9.06492 10.0226 9.15013C8.82268 9.41523 7.4526 9.98329 6.53026 10.5892C6.34221 10.7218 6.15416 10.788 6.11834 10.7407C6.07356 10.7028 5.27659 9.31108 4.33634 7.65424C2.64389 4.67194 2.63494 4.653 2.83194 4.51098C3.20804 4.25536 4.23784 3.80091 5.0169 3.54528C5.73328 3.31806 5.93924 3.29913 7.32723 3.28966C8.16898 3.28966 9.49428 3.32753 10.2823 3.3654C11.9837 3.46008 12.6105 3.3654 14.6701 2.7216C15.4134 2.49437 16.076 2.31449 16.1477 2.32396C16.2283 2.33342 16.488 2.93935 16.8641 3.99026Z" fill="#FBF7FF"/>
<path d="M9.52148 6.64103V7.39844H10.5961H11.6706V6.64103V5.88361H10.5961H9.52148V6.64103Z" fill="#FBF7FF"/>
<path d="M11.7151 11.7156C11.0703 12.2837 9.66444 13.202 8.71523 13.6849C7.22874 14.4328 6.3064 14.7263 3.40506 15.3417C1.98125 15.6542 0.799221 15.9193 0.772357 15.9477C0.736538 15.995 3.21701 24.0425 3.30655 24.1467C3.32446 24.1656 3.66475 24.1088 4.06771 24.0141C4.46172 23.9289 4.81991 23.891 4.86468 23.9289C4.9005 23.9762 5.1781 24.9893 5.48256 26.1917C5.78702 27.3846 6.05567 28.4355 6.08253 28.5112C6.11835 28.6438 6.35117 28.6438 8.33913 28.4544C9.55698 28.3314 10.9808 28.1515 11.5091 28.0379C13.6314 27.6023 15.6731 26.6461 17.3834 25.2922C18.1267 24.7052 22.5951 20.4921 22.5951 20.3691C22.5951 20.3123 16.9447 11.7251 16.8103 11.5641C16.7835 11.5452 15.9686 12.3689 15.0015 13.3914L13.2374 15.2565L12.6643 13.4387C12.3509 12.4352 12.0733 11.5831 12.0374 11.5452C12.0106 11.5168 11.8673 11.5925 11.7151 11.7156ZM12.118 16.5441C12.5658 17.9453 12.924 19.1288 12.924 19.1856C12.924 19.4602 10.3629 20.8424 8.97492 21.3158C8.29436 21.5525 4.31844 22.4803 4.27367 22.4235C4.20203 22.3194 2.61704 17.1311 2.6439 17.0933C2.67077 17.0743 3.48565 16.885 4.47067 16.6672C7.10337 16.0991 9.04656 15.3607 10.7301 14.2814C11.0166 14.092 11.2763 13.95 11.2852 13.9689C11.3032 13.9879 11.6793 15.1429 12.118 16.5441ZM18.6461 16.9702C19.7475 18.6459 20.6519 20.0566 20.6609 20.1229C20.6788 20.3028 16.8909 23.8342 16.0223 24.4496C14.4642 25.5573 12.727 26.2958 10.9091 26.6177C9.61071 26.8449 7.29142 27.0438 7.20188 26.9396C7.13024 26.8449 6.27954 23.5786 6.31535 23.5407C6.33326 23.5313 6.80787 23.4271 7.37202 23.3135C7.93617 23.1904 8.88537 22.9253 9.46743 22.7265C10.0584 22.5277 10.542 22.3667 10.551 22.3762C10.5599 22.3951 10.6495 22.5561 10.7569 22.7454C10.9808 23.1336 11.339 23.4555 11.9389 23.7869C12.2703 23.9668 12.4762 24.0046 13.1031 24.0046C13.8015 24.0141 13.909 23.9857 14.4284 23.6922C15.0104 23.3514 15.3597 22.9632 15.682 22.291C16.2999 21.0129 15.7805 19.1761 14.6254 18.4945C14.2045 18.2578 14.1687 18.1915 13.9627 17.5477L13.7389 16.8566L15.1448 15.3985C15.9149 14.5938 16.5686 13.9405 16.5954 13.9405C16.6223 13.9405 17.5446 15.3039 18.6461 16.9702ZM14.4373 20.4732C14.9298 21.9786 13.2822 23.1999 12.1628 22.149C11.9927 21.9975 11.8494 21.8271 11.8494 21.7892C11.8494 21.7513 12.1986 21.5052 12.6374 21.2401C13.0672 20.975 13.5777 20.6342 13.7747 20.4732C14.2314 20.1134 14.312 20.1134 14.4373 20.4732Z" fill="#FBF7FF"/>
<path d="M7.3989 17.6898C6.88848 17.8697 6.47656 18.0685 6.47656 18.1348C6.47656 18.3999 6.86162 19.4224 6.96012 19.4224C7.08549 19.4224 8.9033 18.788 8.95703 18.7218C8.9839 18.7028 8.9033 18.3809 8.79585 18.0117C8.65257 17.5478 8.54511 17.3395 8.45556 17.3489C8.37497 17.3489 7.90037 17.5004 7.3989 17.6898Z" fill="#FBF7FF"/>
<path d="M40.8181 19.0627C36.7974 20.4639 33.7349 20.8142 29.8754 20.3125C29.2754 20.2273 28.7203 20.1799 28.6486 20.1988C28.5501 20.2178 28.8367 21.1172 29.8486 23.967L31.1739 27.7067L31.9619 27.9245C33.6901 28.3884 35.105 28.5493 37.4601 28.5493C39.2869 28.5493 39.8689 28.5114 40.9525 28.3316C42.1524 28.1422 43.8628 27.7351 43.9702 27.631C44.006 27.5931 42.4658 19.2237 42.3315 18.7314C42.3046 18.6462 42.2599 18.5704 42.224 18.5799C42.1882 18.5893 41.5614 18.7976 40.8181 19.0627ZM41.2659 20.7669C41.2927 20.89 41.5524 22.2344 41.839 23.7492C42.3136 26.2771 42.3494 26.5232 42.2061 26.5706C42.1166 26.599 41.5077 26.7031 40.854 26.8073C39.2242 27.0629 37.1556 27.1481 35.6691 27.0061C34.1558 26.8641 32.4365 26.5516 32.3022 26.4002C32.2484 26.3434 31.8544 25.3208 31.4425 24.1469L30.6903 22.0072H32.7499C35.5796 22.0072 37.8272 21.6663 40.057 20.8995C41.2032 20.5113 41.2032 20.5113 41.2659 20.7669Z" fill="#FBF7FF"/>
<path d="M36.0273 24.8188V25.5762H37.1019H38.1765V24.8188V24.0613H37.1019H36.0273V24.8188Z" fill="#FBF7FF"/>
</svg>
