<svg width="39" height="39" viewBox="0 0 39 39" fill="none" xmlns="http://www.w3.org/2000/svg">
<path d="M37.3672 17.4561C37.9248 17.3923 38.4315 17.7928 38.4654 18.3531C38.6953 22.1542 37.7777 25.9457 35.8195 29.23C33.6875 32.806 30.4399 35.5826 26.5762 37.1331C22.7124 38.6837 18.4463 38.9222 14.4338 37.8121C10.4212 36.702 6.88439 34.3047 4.36698 30.9888C1.84957 27.6728 0.490968 23.6218 0.500045 19.4586C0.509122 15.2953 1.88538 11.2503 4.41722 7.94536C6.94907 4.64043 10.4963 2.25857 14.5137 1.16597C18.2034 0.162475 22.102 0.297554 25.7016 1.54058C26.2321 1.72379 26.4817 2.31942 26.2704 2.83942C26.0591 3.35942 25.467 3.60656 24.9353 3.42675C21.7495 2.34939 18.307 2.24077 15.0471 3.12736C11.4596 4.10307 8.29178 6.23012 6.03079 9.18148C3.7698 12.1328 2.54078 15.7451 2.53268 19.463C2.52457 23.1809 3.73783 26.7985 5.98592 29.7597C8.23402 32.7209 11.3925 34.8617 14.9758 35.8531C18.559 36.8444 22.3687 36.6314 25.8191 35.2467C29.2696 33.8621 32.1697 31.3825 34.0736 28.1891C35.8037 25.2874 36.6242 21.9424 36.4426 18.5843C36.4123 18.0238 36.8095 17.5199 37.3672 17.4561Z" fill="white"/>
<path fill-rule="evenodd" clip-rule="evenodd" d="M32.9 3.875C32.9 3.32272 32.4523 2.875 31.9 2.875C31.3477 2.875 30.9 3.32272 30.9 3.875V7.05H27.625C27.0727 7.05 26.625 7.49772 26.625 8.05C26.625 8.60228 27.0727 9.05 27.625 9.05H30.9V12.325C30.9 12.8773 31.3477 13.325 31.9 13.325C32.4523 13.325 32.9 12.8773 32.9 12.325V9.05H36.075C36.6273 9.05 37.075 8.60228 37.075 8.05C37.075 7.49772 36.6273 7.05 36.075 7.05H32.9V3.875Z" fill="white"/>
<path d="M19.4064 29.4749C19.1029 29.4749 18.8545 29.37 18.6614 29.1602C18.4682 28.9644 18.3717 28.7197 18.3717 28.426V26.9995C17.5301 26.9436 16.7782 26.8107 16.116 26.6009C15.4676 26.3772 14.9088 26.1324 14.4397 25.8667C14.1224 25.6849 13.9224 25.4402 13.8396 25.1325C13.7706 24.8248 13.7913 24.5311 13.9017 24.2514C14.0121 23.9717 14.1983 23.7759 14.4604 23.664C14.7226 23.5521 15.033 23.6011 15.3917 23.8109C15.778 24.0346 16.2815 24.2514 16.9024 24.4612C17.537 24.657 18.2958 24.7549 19.1787 24.7549C20.2134 24.7549 20.9584 24.5731 21.4137 24.2094C21.869 23.8318 22.0966 23.3633 22.0966 22.8039C22.0966 22.3424 21.938 21.9648 21.6207 21.6711C21.3033 21.3774 20.7377 21.1397 19.9237 20.9579L17.7301 20.4754C15.233 19.93 13.9845 18.6013 13.9845 16.4896C13.9845 15.3148 14.3777 14.3288 15.164 13.5317C15.9642 12.7205 17.0334 12.2311 18.3717 12.0632V10.5738C18.3717 10.2801 18.4682 10.0354 18.6614 9.83957C18.8545 9.62979 19.1029 9.5249 19.4064 9.5249C19.6961 9.5249 19.9375 9.62979 20.1307 9.83957C20.3376 10.0354 20.4411 10.2801 20.4411 10.5738V12.0423C20.9929 12.0982 21.5724 12.2311 22.1794 12.4408C22.8002 12.6506 23.3383 12.9373 23.7936 13.3009C24.0557 13.5107 24.2074 13.7554 24.2488 14.0352C24.2902 14.3009 24.2419 14.5526 24.104 14.7904C23.9798 15.0141 23.7798 15.168 23.5038 15.2519C23.2417 15.3218 22.9313 15.2519 22.5726 15.0421C22.1725 14.8043 21.7241 14.6155 21.2275 14.4757C20.7308 14.3219 20.1376 14.2449 19.4478 14.2449C18.5648 14.2449 17.8681 14.4477 17.3576 14.8533C16.861 15.2449 16.6126 15.7623 16.6126 16.4057C16.6126 16.8812 16.7644 17.2658 17.0679 17.5594C17.3714 17.8392 17.8888 18.0629 18.62 18.2307L20.8757 18.7342C22.2001 19.0279 23.1727 19.4964 23.7936 20.1397C24.4144 20.7691 24.7248 21.6012 24.7248 22.6361C24.7248 23.8109 24.3247 24.7759 23.5245 25.5311C22.7382 26.2723 21.7103 26.7408 20.4411 26.9366V28.426C20.4411 28.7197 20.3445 28.9644 20.1514 29.1602C19.9582 29.37 19.7099 29.4749 19.4064 29.4749Z" fill="white"/>
</svg>
